<mxfile host="app.diagrams.net" modified="2020-10-05T13:40:30.915Z" agent="5.0 (Windows)" etag="GwWvuqL3eUaOKnmDb-pl" version="13.7.7" type="github">
  <diagram id="3C6ACQQHesN2s_W3LlT6" name="Page-1">
    <mxGraphModel dx="910" dy="487" grid="1" gridSize="10" guides="1" tooltips="1" connect="1" arrows="1" fold="1" page="1" pageScale="1" pageWidth="1169" pageHeight="827" math="0" shadow="0">
      <root>
        <mxCell id="0" />
        <mxCell id="1" parent="0" />
        <mxCell id="mWzmDmBHzAwZXGDcWGLa-13" value="Parking System" style="swimlane;html=1;childLayout=stackLayout;resizeParent=1;resizeParentMax=0;horizontal=1;startSize=20;horizontalStack=0;" vertex="1" parent="1">
          <mxGeometry x="90" y="30" width="1020" height="456" as="geometry" />
        </mxCell>
        <mxCell id="mWzmDmBHzAwZXGDcWGLa-14" value="Visitor" style="swimlane;html=1;startSize=20;horizontal=0;" vertex="1" parent="mWzmDmBHzAwZXGDcWGLa-13">
          <mxGeometry y="20" width="1020" height="250" as="geometry" />
        </mxCell>
        <mxCell id="mWzmDmBHzAwZXGDcWGLa-17" value="&lt;font face=&quot;Times New Roman&quot;&gt;Start&lt;/font&gt;" style="rounded=1;whiteSpace=wrap;html=1;" vertex="1" parent="mWzmDmBHzAwZXGDcWGLa-14">
          <mxGeometry x="188" y="40" width="90" height="50" as="geometry" />
        </mxCell>
        <mxCell id="mWzmDmBHzAwZXGDcWGLa-20" value="&lt;p class=&quot;western&quot; style=&quot;line-height: 150%&quot; lang=&quot;en-GB&quot;&gt;&lt;font face=&quot;Times New Roman&quot;&gt;User gets an intelligent ticket from the ATM or swipes a staff card&lt;/font&gt;&lt;/p&gt;" style="rounded=0;whiteSpace=wrap;html=1;align=center;" vertex="1" parent="mWzmDmBHzAwZXGDcWGLa-14">
          <mxGeometry x="173" y="166" width="120" height="60" as="geometry" />
        </mxCell>
        <mxCell id="mWzmDmBHzAwZXGDcWGLa-19" value="" style="edgeStyle=orthogonalEdgeStyle;rounded=0;orthogonalLoop=1;jettySize=auto;html=1;entryX=0.5;entryY=0;entryDx=0;entryDy=0;" edge="1" parent="mWzmDmBHzAwZXGDcWGLa-14" source="mWzmDmBHzAwZXGDcWGLa-17" target="mWzmDmBHzAwZXGDcWGLa-20">
          <mxGeometry relative="1" as="geometry">
            <mxPoint x="233" y="170" as="targetPoint" />
          </mxGeometry>
        </mxCell>
        <mxCell id="mWzmDmBHzAwZXGDcWGLa-23" value="&lt;font face=&quot;Times New Roman&quot;&gt;Proceed to parking&lt;/font&gt;" style="whiteSpace=wrap;html=1;rounded=0;" vertex="1" parent="mWzmDmBHzAwZXGDcWGLa-14">
          <mxGeometry x="415" y="166" width="120" height="60" as="geometry" />
        </mxCell>
        <mxCell id="mWzmDmBHzAwZXGDcWGLa-38" value="&lt;font&gt;Notify Visitor through sensor beep&lt;/font&gt;" style="whiteSpace=wrap;html=1;rounded=0;fontFamily=Times New Roman;" vertex="1" parent="mWzmDmBHzAwZXGDcWGLa-14">
          <mxGeometry x="629" y="166" width="120" height="60" as="geometry" />
        </mxCell>
        <mxCell id="mWzmDmBHzAwZXGDcWGLa-42" value="End" style="rounded=1;whiteSpace=wrap;html=1;align=center;fontFamily=Times New Roman;" vertex="1" parent="mWzmDmBHzAwZXGDcWGLa-14">
          <mxGeometry x="829" y="176" width="90" height="40" as="geometry" />
        </mxCell>
        <mxCell id="mWzmDmBHzAwZXGDcWGLa-44" value="" style="edgeStyle=orthogonalEdgeStyle;rounded=0;orthogonalLoop=1;jettySize=auto;html=1;entryX=0.5;entryY=0;entryDx=0;entryDy=0;" edge="1" parent="mWzmDmBHzAwZXGDcWGLa-14" source="mWzmDmBHzAwZXGDcWGLa-23" target="mWzmDmBHzAwZXGDcWGLa-42">
          <mxGeometry relative="1" as="geometry">
            <mxPoint x="475" y="96" as="targetPoint" />
            <Array as="points">
              <mxPoint x="475" y="96" />
              <mxPoint x="874" y="96" />
            </Array>
          </mxGeometry>
        </mxCell>
        <mxCell id="mWzmDmBHzAwZXGDcWGLa-46" value="" style="edgeStyle=orthogonalEdgeStyle;rounded=0;orthogonalLoop=1;jettySize=auto;html=1;fontFamily=Times New Roman;entryX=0;entryY=0.5;entryDx=0;entryDy=0;" edge="1" parent="mWzmDmBHzAwZXGDcWGLa-14" source="mWzmDmBHzAwZXGDcWGLa-38" target="mWzmDmBHzAwZXGDcWGLa-42">
          <mxGeometry relative="1" as="geometry">
            <mxPoint x="829" y="196" as="targetPoint" />
          </mxGeometry>
        </mxCell>
        <mxCell id="mWzmDmBHzAwZXGDcWGLa-15" value="System Support" style="swimlane;html=1;startSize=20;horizontal=0;" vertex="1" parent="mWzmDmBHzAwZXGDcWGLa-13">
          <mxGeometry y="270" width="1020" height="186" as="geometry" />
        </mxCell>
        <mxCell id="mWzmDmBHzAwZXGDcWGLa-25" value="yes" style="text;html=1;strokeColor=none;fillColor=none;align=center;verticalAlign=middle;whiteSpace=wrap;rounded=0;fontFamily=Times New Roman;" vertex="1" parent="mWzmDmBHzAwZXGDcWGLa-15">
          <mxGeometry x="360" y="36" width="40" height="20" as="geometry" />
        </mxCell>
        <mxCell id="mWzmDmBHzAwZXGDcWGLa-21" value="&lt;font&gt;Is space available?&lt;/font&gt;" style="rhombus;whiteSpace=wrap;html=1;rounded=0;fontFamily=Times New Roman;" vertex="1" parent="mWzmDmBHzAwZXGDcWGLa-15">
          <mxGeometry x="360" y="46" width="80" height="80" as="geometry" />
        </mxCell>
        <mxCell id="mWzmDmBHzAwZXGDcWGLa-30" value="&lt;font face=&quot;Times New Roman&quot;&gt;Visitor has reserved parking?&lt;/font&gt;" style="rhombus;whiteSpace=wrap;html=1;rounded=0;" vertex="1" parent="mWzmDmBHzAwZXGDcWGLa-15">
          <mxGeometry x="178" y="30" width="110" height="96" as="geometry" />
        </mxCell>
        <mxCell id="mWzmDmBHzAwZXGDcWGLa-34" value="yes" style="text;html=1;strokeColor=none;fillColor=none;align=center;verticalAlign=middle;whiteSpace=wrap;rounded=0;fontFamily=Times New Roman;" vertex="1" parent="mWzmDmBHzAwZXGDcWGLa-15">
          <mxGeometry x="305" y="16" width="40" height="20" as="geometry" />
        </mxCell>
        <mxCell id="mWzmDmBHzAwZXGDcWGLa-36" value="" style="edgeStyle=orthogonalEdgeStyle;rounded=0;orthogonalLoop=1;jettySize=auto;html=1;entryX=0.5;entryY=1;entryDx=0;entryDy=0;" edge="1" parent="mWzmDmBHzAwZXGDcWGLa-15" source="mWzmDmBHzAwZXGDcWGLa-30" target="mWzmDmBHzAwZXGDcWGLa-21">
          <mxGeometry relative="1" as="geometry">
            <mxPoint x="233" y="214" as="targetPoint" />
            <Array as="points">
              <mxPoint x="233" y="146" />
              <mxPoint x="400" y="146" />
            </Array>
          </mxGeometry>
        </mxCell>
        <mxCell id="mWzmDmBHzAwZXGDcWGLa-37" value="&lt;font face=&quot;Times New Roman&quot;&gt;no&lt;/font&gt;" style="text;html=1;strokeColor=none;fillColor=none;align=center;verticalAlign=middle;whiteSpace=wrap;rounded=0;" vertex="1" parent="mWzmDmBHzAwZXGDcWGLa-15">
          <mxGeometry x="289" y="126" width="40" height="20" as="geometry" />
        </mxCell>
        <mxCell id="mWzmDmBHzAwZXGDcWGLa-24" value="" style="edgeStyle=orthogonalEdgeStyle;rounded=0;orthogonalLoop=1;jettySize=auto;html=1;" edge="1" parent="mWzmDmBHzAwZXGDcWGLa-13" source="mWzmDmBHzAwZXGDcWGLa-21" target="mWzmDmBHzAwZXGDcWGLa-23">
          <mxGeometry relative="1" as="geometry" />
        </mxCell>
        <mxCell id="mWzmDmBHzAwZXGDcWGLa-31" value="" style="edgeStyle=orthogonalEdgeStyle;rounded=0;orthogonalLoop=1;jettySize=auto;html=1;" edge="1" parent="mWzmDmBHzAwZXGDcWGLa-13" source="mWzmDmBHzAwZXGDcWGLa-20" target="mWzmDmBHzAwZXGDcWGLa-30">
          <mxGeometry relative="1" as="geometry" />
        </mxCell>
        <mxCell id="mWzmDmBHzAwZXGDcWGLa-33" value="" style="edgeStyle=orthogonalEdgeStyle;rounded=0;orthogonalLoop=1;jettySize=auto;html=1;entryX=0;entryY=0.5;entryDx=0;entryDy=0;" edge="1" parent="mWzmDmBHzAwZXGDcWGLa-13" source="mWzmDmBHzAwZXGDcWGLa-30" target="mWzmDmBHzAwZXGDcWGLa-23">
          <mxGeometry relative="1" as="geometry">
            <mxPoint x="333" y="356" as="targetPoint" />
            <Array as="points">
              <mxPoint x="339" y="348" />
              <mxPoint x="339" y="216" />
            </Array>
          </mxGeometry>
        </mxCell>
        <mxCell id="mWzmDmBHzAwZXGDcWGLa-39" value="" style="edgeStyle=orthogonalEdgeStyle;rounded=0;orthogonalLoop=1;jettySize=auto;html=1;" edge="1" parent="mWzmDmBHzAwZXGDcWGLa-13" source="mWzmDmBHzAwZXGDcWGLa-21" target="mWzmDmBHzAwZXGDcWGLa-38">
          <mxGeometry relative="1" as="geometry" />
        </mxCell>
      </root>
    </mxGraphModel>
  </diagram>
</mxfile>
